<svg width="189" height="48" viewBox="0 0 189 48" fill="none" xmlns="http://www.w3.org/2000/svg">
<g clip-path="url(#clip0_32_900)">
<path d="M60.2835 37.6063L62.6268 32.1638C65.1591 34.0535 68.5228 35.0362 71.8488 35.0362C74.3055 35.0362 75.8551 34.0913 75.8551 32.6551C75.8173 28.6488 61.1528 31.7858 61.0394 21.7323C61.0016 16.6299 65.537 12.6992 71.9622 12.6992C75.7795 12.6992 79.5969 13.6441 82.3181 15.7984L80.126 21.3543C77.6315 19.7669 74.5323 18.6331 71.5842 18.6331C69.5811 18.6331 68.2583 19.578 68.2583 20.7874C68.2961 24.7181 83.074 22.5638 83.2252 32.1638C83.2252 37.3795 78.8031 41.0457 72.4535 41.0457C67.8047 41.0457 63.5339 39.9496 60.2835 37.6063ZM150.198 30.1984C149.027 32.2394 146.835 33.6378 144.302 33.6378C140.561 33.6378 137.537 30.6142 137.537 26.8724C137.537 23.1307 140.561 20.1071 144.302 20.1071C146.835 20.1071 149.027 21.5055 150.198 23.5465L156.661 19.9559C154.243 15.6472 149.594 12.6992 144.302 12.6992C136.479 12.6992 130.129 19.0488 130.129 26.8724C130.129 34.6961 136.479 41.0457 144.302 41.0457C149.631 41.0457 154.243 38.1354 156.661 33.789L150.198 30.1984ZM86.4756 0.944885H94.5638V40.5165H86.4756V0.944885ZM159.836 0.944885V40.5165H167.924V28.6488L177.524 40.5165H187.88L175.672 26.4189L186.973 13.2661H177.071L167.924 24.189V0.944885H159.836ZM118.602 30.274C117.43 32.2016 115.011 33.6378 112.29 33.6378C108.548 33.6378 105.524 30.6142 105.524 26.8724C105.524 23.1307 108.548 20.1071 112.29 20.1071C115.011 20.1071 117.43 21.6189 118.602 23.5843V30.274ZM118.602 13.2661V16.4787C117.279 14.2488 113.991 12.6992 110.551 12.6992C103.446 12.6992 97.852 18.9732 97.852 26.8346C97.852 34.6961 103.446 41.0457 110.551 41.0457C113.991 41.0457 117.279 39.4961 118.602 37.2661V40.4787H126.69V13.2661H118.602Z" fill="#999999"/>
<path d="M10.2803 30.2362C10.2803 32.9953 8.05039 35.2252 5.29134 35.2252C2.53228 35.2252 0.302361 32.9953 0.302361 30.2362C0.302361 27.4772 2.53228 25.2473 5.29134 25.2473H10.2803V30.2362ZM12.7748 30.2362C12.7748 27.4772 15.0047 25.2473 17.7638 25.2473C20.5228 25.2473 22.7528 27.4772 22.7528 30.2362V42.7087C22.7528 45.4677 20.5228 47.6976 17.7638 47.6976C15.0047 47.6976 12.7748 45.4677 12.7748 42.7087V30.2362Z" fill="#999999"/>
<path d="M17.7638 10.2047C15.0047 10.2047 12.7748 7.97481 12.7748 5.21575C12.7748 2.4567 15.0047 0.226776 17.7638 0.226776C20.5228 0.226776 22.7528 2.4567 22.7528 5.21575V10.2047H17.7638ZM17.7638 12.737C20.5228 12.737 22.7528 14.9669 22.7528 17.726C22.7528 20.485 20.5228 22.715 17.7638 22.715H5.25354C2.49449 22.715 0.264565 20.485 0.264565 17.726C0.264565 14.9669 2.49449 12.737 5.25354 12.737H17.7638Z" fill="#999999"/>
<path d="M37.7575 17.726C37.7575 14.9669 39.9874 12.737 42.7465 12.737C45.5055 12.737 47.7354 14.9669 47.7354 17.726C47.7354 20.485 45.5055 22.715 42.7465 22.715H37.7575V17.726ZM35.263 17.726C35.263 20.485 33.0331 22.715 30.274 22.715C27.515 22.715 25.285 20.485 25.285 17.726V5.21575C25.285 2.4567 27.515 0.226776 30.274 0.226776C33.0331 0.226776 35.263 2.4567 35.263 5.21575V17.726Z" fill="#999999"/>
<path d="M30.274 37.7197C33.0331 37.7197 35.263 39.9496 35.263 42.7087C35.263 45.4677 33.0331 47.6976 30.274 47.6976C27.515 47.6976 25.285 45.4677 25.285 42.7087V37.7197H30.274ZM30.274 35.2252C27.515 35.2252 25.285 32.9953 25.285 30.2362C25.285 27.4772 27.515 25.2473 30.274 25.2473H42.7843C45.5433 25.2473 47.7732 27.4772 47.7732 30.2362C47.7732 32.9953 45.5433 35.2252 42.7843 35.2252H30.274Z" fill="#999999"/>
</g>
<defs>
<clipPath id="clip0_32_900">
<rect width="188.22" height="48" fill="white"/>
</clipPath>
</defs>
</svg>
